Coordinates
version=1
nRows=4
nColumns=63
inDegrees=yes

Units are S.I. units (second, meters, Newtons, ...)
If the header above contains a line with 'inDegrees', this indicates whether rotational values are in degrees (yes) or radians (no).

endheader
time	pelvis_tilt	pelvis_list	pelvis_rotation	pelvis_tx	pelvis_ty	pelvis_tz	hip_flexion_r	hip_adduction_r	hip_rotation_r	knee_angle_r	knee_angle_r_beta	ankle_angle_r	subtalar_angle_r	mtp_angle_r	hip_flexion_l	hip_adduction_l	hip_rotation_l	knee_angle_l	knee_angle_l_beta	ankle_angle_l	subtalar_angle_l	mtp_angle_l	L5_S1_Flex_Ext	L5_S1_Lat_Bending	L5_S1_axial_rotation	L4_L5_Flex_Ext	L4_L5_Lat_Bending	L4_L5_axial_rotation	L3_L4_Flex_Ext	L3_L4_Lat_Bending	L3_L4_axial_rotation	L2_L3_Flex_Ext	L2_L3_Lat_Bending	L2_L3_axial_rotation	L1_L2_Flex_Ext	L1_L2_Lat_Bending	L1_L2_axial_rotation	L1_T12_Flex_Ext	L1_T12_Lat_Bending	L1_T12_axial_rotation	Abs_r3	Abs_r2	Abs_r1	Abs_t1	Abs_t2	neck_flexion	neck_bending	neck_rotation	arm_flex_r	arm_add_r	arm_rot_r	elbow_flex_r	pro_sup_r	wrist_flex_r	wrist_dev_r	arm_flex_l	arm_add_l	arm_rot_l	elbow_flex_l	pro_sup_l	wrist_flex_l	wrist_dev_l
      2.84745763	      1.89450279	     -3.10676794	     84.32048427	      0.26568376	      0.94650817	      0.59588476	      3.49537131	      1.71988065	     -3.62847963	     10.81662736	      0.18878576	     39.65775947	      9.95804172	      0.00000000	      1.00644257	     -0.46010457	      8.70261050	      6.82692397	      0.11915230	     36.01289589	    -11.38153718	      0.00000000	     -0.01738498	      0.26716720	      0.57389019	     -0.03228564	      0.35533237	      0.60975833	     -0.02856178	      0.64959033	      0.60975833	     -0.01986929	      0.64959033	      0.50215391	     -0.01614369	      0.54480735	      0.46628578	     -0.00993378	      0.41384199	      0.43041764	     -0.12417915	      3.02224879	      3.19180506	      0.00000000	      0.00000000	     19.81361213	      2.59297590	      6.82373859	     -4.98189545	    -15.86017127	     29.92083622	     23.24973664	     70.75318200	     -2.55268572	     -0.10220964	     -5.81571792	    -13.91952168	     28.67314585	     33.55575530	     86.66751244	     -9.61921498	      9.05926095
      2.86440678	      1.91524748	     -3.16995158	     84.05199727	      0.26541559	      0.94626433	      0.59599145	      3.55946770	      1.71168637	     -3.65806366	     10.79802180	      0.18846103	     39.52649412	     10.00389486	      0.00000000	      1.01381441	     -0.44493396	      8.42621964	      6.94362190	      0.12118906	     35.86080146	    -11.56622923	      0.00000000	     -0.02443903	      0.27143938	      0.70530314	     -0.04538573	      0.36101438	      0.74938459	     -0.04015089	      0.65997771	      0.74938459	     -0.02793137	      0.65997771	      0.61714025	     -0.02269409	      0.55351918	      0.57305880	     -0.01396446	      0.42045960	      0.52897736	     -0.17456558	      3.07057656	      3.92268449	      0.00000000	      0.00000000	     20.07412284	      2.41396941	      6.24430906	     -5.27378571	    -15.75595478	     30.24234387	     22.94515881	     69.35864426	     -3.31007061	     -1.64927035	     -5.80696888	    -13.97843191	     28.65636145	     34.14503109	     86.70757878	     -9.69765214	      9.26067324
      2.88135593	      1.93826173	     -3.27682659	     83.61229171	      0.26526074	      0.94600824	      0.59594922	      3.70985516	      1.70145248	     -3.64189418	     10.86460946	      0.18962321	     39.34864837	     10.14607228	      0.00000000	      1.00648146	     -0.40006103	      8.39476468	      7.02123026	      0.12254359	     35.49137858	    -12.38818335	      0.00000000	     -0.01976903	      0.28262824	      0.87232990	     -0.03671307	      0.37589555	      0.92685052	     -0.03247854	      0.68718229	      0.92685052	     -0.02259403	      0.68718229	      0.76328866	     -0.01835752	      0.57633550	      0.70876804	     -0.01129602	      0.43779114	      0.65424742	     -0.14120822	      3.19714713	      4.85163720	      0.00000000	      0.00000000	     20.41184279	      2.20641240	      5.84946015	     -5.79068619	    -15.67046446	     29.91761785	     22.99227043	     68.79729739	     -4.27698132	     -3.34519878	     -5.60249845	    -13.89920625	     29.03234687	     34.29912471	     86.58260046	    -10.18058424	      9.09780283
      2.89830508	      1.99071494	     -3.29868181	     83.39081501	      0.26494799	      0.94592292	      0.59604802	      3.73961026	      1.71936955	     -3.69267870	     10.86971203	      0.18971226	     39.09583424	     10.10565066	      0.00000000	      1.04504085	     -0.45754787	      7.10752415	      7.31152224	      0.12761014	     35.65396115	    -11.27453463	      0.00000000	     -0.02825690	      0.29700376	      0.97972173	     -0.05247588	      0.39501500	      1.04095434	     -0.04642325	      0.72213494	      1.04095434	     -0.03229481	      0.72213494	      0.85725652	     -0.02623935	      0.60565007	      0.79602391	     -0.01614599	      0.46005883	      0.73479130	     -0.20183618	      3.35976594	      5.44891837	      0.00000000	      0.00000000	     20.74036484	      2.11383343	      5.68544888	     -6.13285695	    -15.65455597	     30.00877107	     23.19159340	     68.21594482	     -5.10086405	     -4.66984539	     -5.17066063	    -13.79522372	     29.75631876	     34.03691737	     86.33283334	    -10.62983285	      8.52644814
